# xmcd CD database file
#
# Track frame offsets:
#	150
#	22211
#	43550
#	60801
#	85856
#	103187
#	125731
#	151184
#	172058
#	194441
#	215959
#	234135
#	255308
#	279716
#	311100
#
# Disc length: 4481 seconds
#
# Revision: 2
# Processed by: cddbd v1.4PL0 Copyright (c) Steve Scherf et al.
# Submitted via: CDex 1.40Release
#
DISCID=d4117f0f
DTITLE=Various Artist - Kiss -dramatic love story-
DYEAR=2002
DGENRE=Jazz+Funk
TTITLE0=Love story wa totsuzenni
TTITLE1=SAY YES
TTITLE2=TRUE LOVE
TTITLE3=PIECE OF MY WISH
TTITLE4=Riverside hotel
TTITLE5=Koi ni ochite
TTITLE6=SUMMER CANDLES
TTITLE7=Yume wo akiramenaide
TTITLE8=Seppun kiss
TTITLE9=Squall
TTITLE10=SHOW ME
TTITLE11=Silent eve
TTITLE12=Yume with You
TTITLE13=Everything
TTITLE14=Kagayakutoki no nakade
EXTD=YEAR: 2002 ID3G: 29
EXTT0=
EXTT1=
EXTT2=
EXTT3=
EXTT4=
EXTT5=
EXTT6=
EXTT7=
EXTT8=
EXTT9=
EXTT10=
EXTT11=
EXTT12=
EXTT13=
EXTT14=
PLAYORDER=
